<?xml version="1.0" standalone="no"?>
<!DOCTYPE svg PUBLIC "-//W3C//DTD SVG 20010904//EN"
 "http://www.w3.org/TR/2001/REC-SVG-20010904/DTD/svg10.dtd">
<svg version="1.0" xmlns="http://www.w3.org/2000/svg"
 width="512.000000pt" height="512.000000pt" viewBox="0 0 512.000000 512.000000"
 preserveAspectRatio="xMidYMid meet">

<g transform="translate(0.000000,512.000000) scale(0.100000,-0.100000)"
fill="currentColor" stroke="none">
<path d="M2240 5105 c-389 -48 -766 -188 -1091 -404 -504 -335 -871 -825
-1043 -1395 -41 -132 -81 -333 -96 -468 -13 -125 -13 -431 0 -556 108 -1014
825 -1880 1804 -2176 132 -41 333 -81 468 -96 125 -13 431 -13 556 0 592 63
1141 332 1563 766 289 299 494 645 613 1038 74 243 106 468 106 746 0 209 -10
324 -46 505 -181 920 -867 1676 -1768 1949 -132 41 -333 81 -468 96 -131 14
-469 11 -598 -5z m172 -720 c34 -7 94 -58 114 -96 17 -33 19 -121 3 -152 -34
-67 -100 -109 -169 -109 -70 0 -134 42 -170 111 -16 32 -14 113 4 149 20 39
80 90 114 98 15 3 32 7 37 8 10 3 19 2 67 -9z m680 -100 c34 -7 94 -58 114
-96 17 -33 19 -121 3 -152 -34 -67 -100 -109 -169 -109 -70 0 -134 42 -170
111 -16 32 -14 113 4 149 20 39 80 90 114 98 15 3 32 7 37 8 10 3 19 2 67 -9z
m-1317 -560 c164 -80 293 -128 462 -170 432 -109 911 -112 1430 -8 151 31 188
26 242 -29 77 -79 64 -192 -28 -255 -86 -59 -610 -133 -938 -133 -320 0 -669
51 -938 137 -231 74 -498 202 -541 259 -69 90 -27 220 82 259 53 19 79 13 229
-60z m-250 -681 c612 -302 1386 -372 2227 -202 180 36 210 33 278 -28 77 -69
90 -176 33 -258 -44 -62 -89 -81 -284 -120 -311 -63 -555 -86 -894 -86 -597 0
-1098 109 -1549 337 -70 36 -144 79 -163 96 -95 84 -97 213 -4 301 34 32 111
56 156 49 17 -3 107 -43 200 -89z m-371 -718 c505 -258 1039 -376 1706 -376
382 0 686 30 1032 100 106 22 207 40 224 40 83 0 172 -59 216 -143 33 -63 31
-159 -5 -219 -35 -61 -90 -105 -152 -124 -150 -44 -534 -109 -815 -136 -180
-17 -803 -17 -970 0 -548 58 -992 181 -1418 394 -240 120 -296 179 -296 308 0
117 74 211 189 241 66 17 122 1 289 -85z"/>
</g>
</svg>
